<svg width="126" height="23" viewBox="0 0 126 23" fill="none" xmlns="http://www.w3.org/2000/svg">
<path d="M11.004 21.924C11.004 22.092 10.92 22.148 10.612 22.148H-4.99189e-07V20.776C-4.99189e-07 20.496 0.112 20.216 0.448 20.104C1.54 19.74 1.876 19.544 1.876 18.816V5.96401C1.876 5.23601 1.54 5.04001 0.448 4.67601C0.112 4.56401 -4.99189e-07 4.28401 -4.99189e-07 4.00401V2.54801H3.08C4.788 2.54801 6.86 2.43601 9.66 2.43601C15.54 2.43601 18.256 4.50801 18.256 8.56801C18.256 12.768 14.644 15.064 9.1 15.064C8.904 15.064 8.596 15.036 8.316 15.008V19.628L11.004 20.328V21.924ZM9.128 4.92801C8.82 4.92801 8.568 4.95601 8.316 4.98401V12.404C8.596 12.572 8.988 12.656 9.38 12.656C10.64 12.656 11.676 11.536 11.676 8.68001C11.676 5.54401 10.696 4.92801 9.128 4.92801ZM24.2756 6.49601C22.4556 6.49601 20.9156 4.98401 20.9156 3.16401C20.9156 1.51201 22.4556 1.00136e-05 24.2756 1.00136e-05C26.0396 1.00136e-05 27.4956 1.51201 27.4956 3.16401C27.4956 4.98401 26.0396 6.49601 24.2756 6.49601ZM28.7276 22.008C28.7276 22.12 28.6716 22.148 28.4476 22.148H20.0756V20.636C20.0756 20.328 20.1596 20.216 20.4396 20.076C21.1396 19.74 21.3076 19.46 21.3076 18.872V11.172C21.3076 10.64 21.2236 10.5 20.4396 10.248C20.1876 10.164 20.0756 10.024 20.0756 9.71601V8.26001L27.4956 6.97201L27.4116 10.332V19.74L28.7276 20.384V22.008ZM41.9313 22.484C40.1393 22.484 38.9353 21.896 38.3753 20.104C37.4793 21.868 35.7993 22.512 34.2313 22.512C31.9353 22.512 30.1433 20.916 30.1433 18.256C30.1433 14.756 33.3913 13.804 37.7033 13.748H38.0673V11.844C38.0673 9.66001 37.3393 9.18401 36.3313 9.18401C35.9393 9.18401 35.6033 9.21201 35.2393 9.29601C35.0433 10.248 34.7633 11.228 34.3993 12.012C34.2313 12.376 34.0353 12.432 33.6713 12.432H31.6273L31.1513 8.40001C32.9153 7.50401 35.7433 6.97201 37.8713 6.97201C42.6593 6.97201 44.1713 8.96001 44.1713 12.656V18.228C44.1713 18.704 44.4513 18.984 44.8433 18.984C45.0953 18.984 45.2913 18.928 45.4593 18.788L46.2433 20.3C45.4313 21.672 43.5553 22.484 41.9313 22.484ZM35.4913 17.472C35.4913 18.424 36.0793 19.152 37.1993 19.152C37.4793 19.152 37.7873 19.096 38.0673 18.956V15.736H37.8433C36.1353 15.764 35.4913 16.492 35.4913 17.472ZM56.0278 22.008C56.0278 22.12 55.9718 22.148 55.7478 22.148H47.4598V20.636C47.4598 20.328 47.5438 20.216 47.8238 20.076C48.5238 19.74 48.6918 19.432 48.6918 18.844V11.2C48.6918 10.668 48.5798 10.5 47.8238 10.276C47.5718 10.192 47.4598 10.052 47.4598 9.71601V8.26001L54.8798 6.97201L54.8238 10.276C56.4198 8.06401 58.0998 6.97201 60.2558 6.97201C62.9998 6.97201 64.5678 8.76401 64.5678 11.704V19.74L65.8838 20.356V22.008C65.8838 22.12 65.8278 22.148 65.6038 22.148H57.2878V20.636C57.2878 20.328 57.3718 20.216 57.6518 20.076C58.3518 19.768 58.4638 19.432 58.4638 18.844V13.664C58.4638 11.704 57.7638 11.228 56.6438 11.228C55.9998 11.228 55.3558 11.452 54.7958 11.844V19.74L56.0278 20.356V22.008ZM71.4906 6.49601C69.6706 6.49601 68.1306 4.98401 68.1306 3.16401C68.1306 1.51201 69.6706 1.00136e-05 71.4906 1.00136e-05C73.2546 1.00136e-05 74.7106 1.51201 74.7106 3.16401C74.7106 4.98401 73.2546 6.49601 71.4906 6.49601ZM75.9426 22.008C75.9426 22.12 75.8866 22.148 75.6626 22.148H67.2906V20.636C67.2906 20.328 67.3746 20.216 67.6546 20.076C68.3546 19.74 68.5226 19.46 68.5226 18.872V11.172C68.5226 10.64 68.4386 10.5 67.6546 10.248C67.4026 10.164 67.2906 10.024 67.2906 9.71601V8.26001L74.7106 6.97201L74.6266 10.332V19.74L75.9426 20.384V22.008ZM85.9823 22.008C85.9823 22.12 85.9263 22.148 85.7023 22.148H77.4143V20.636C77.4143 20.328 77.4983 20.216 77.7783 20.076C78.4783 19.74 78.6463 19.432 78.6463 18.844V11.2C78.6463 10.668 78.5343 10.5 77.7783 10.276C77.5263 10.192 77.4143 10.052 77.4143 9.71601V8.26001L84.8343 6.97201L84.7783 10.276C86.3743 8.06401 88.0543 6.97201 90.2103 6.97201C92.9543 6.97201 94.5223 8.76401 94.5223 11.704V19.74L95.8383 20.356V22.008C95.8383 22.12 95.7823 22.148 95.5583 22.148H87.2423V20.636C87.2423 20.328 87.3263 20.216 87.6063 20.076C88.3063 19.768 88.4183 19.432 88.4183 18.844V13.664C88.4183 11.704 87.7183 11.228 86.5983 11.228C85.9543 11.228 85.3103 11.452 84.7503 11.844V19.74L85.9823 20.356V22.008ZM105.813 22.008C105.813 22.12 105.757 22.148 105.533 22.148H97.2451V20.636C97.2451 20.328 97.3291 20.216 97.6091 20.076C98.3091 19.74 98.4771 19.432 98.4771 18.844V11.2C98.4771 10.668 98.3651 10.5 97.6091 10.276C97.3571 10.192 97.2451 10.052 97.2451 9.71601V8.26001L104.665 6.97201L104.609 10.276C106.205 8.06401 107.885 6.97201 110.041 6.97201C112.785 6.97201 114.353 8.76401 114.353 11.704V19.74L115.669 20.356V22.008C115.669 22.12 115.613 22.148 115.389 22.148H107.073V20.636C107.073 20.328 107.157 20.216 107.437 20.076C108.137 19.768 108.249 19.432 108.249 18.844V13.664C108.249 11.704 107.549 11.228 106.429 11.228C105.785 11.228 105.141 11.452 104.581 11.844V19.74L105.813 20.356V22.008ZM121.276 6.49601C119.456 6.49601 117.916 4.98401 117.916 3.16401C117.916 1.51201 119.456 1.00136e-05 121.276 1.00136e-05C123.04 1.00136e-05 124.496 1.51201 124.496 3.16401C124.496 4.98401 123.04 6.49601 121.276 6.49601ZM125.728 22.008C125.728 22.12 125.672 22.148 125.448 22.148H117.076V20.636C117.076 20.328 117.16 20.216 117.44 20.076C118.14 19.74 118.308 19.46 118.308 18.872V11.172C118.308 10.64 118.224 10.5 117.44 10.248C117.188 10.164 117.076 10.024 117.076 9.71601V8.26001L124.496 6.97201L124.412 10.332V19.74L125.728 20.384V22.008Z" fill="black"/>
</svg>
