<svg width="127" height="81" viewBox="0 0 127 81" fill="none" xmlns="http://www.w3.org/2000/svg">
<g clip-path="url(#clip0_18_174)">
<path d="M106.285 43.9167C106.285 54.0833 104.148 64.8333 96.5856 71.5C88.7765 78.3333 75.2956 81 63.3765 81C50.471 81 36.9901 77.75 29.0988 70C22.4406 63.5 20.4678 53.25 20.4678 43.8333C20.4678 23.3333 39.7027 6.75 63.3765 6.75C87.0503 6.75 106.285 23.4167 106.285 43.9167Z" fill="black"/>
<path d="M27.0439 49.3333C27.0439 49.3333 -3.6991 9.16667 0.410928 1.83333C4.52096 -5.5 45.8679 11.5 45.8679 11.5L27.0439 49.3333Z" fill="black"/>
<path d="M97.9832 48.25C97.9832 48.25 130.37 10.9167 126.671 3.33334C122.972 -4.25 77.5974 9.58334 77.5974 9.58334L97.9832 48.25Z" fill="black"/>
<path d="M58.1159 38.0833C57.7871 36.4167 57.1295 34.6667 56.1431 33.25C55.0745 31.6667 53.5127 31.4167 52.1152 30.3333C49.4026 28.1667 44.1418 29.5833 41.4292 31.0833C37.2369 33.3333 36.4149 37.6667 37.0725 42.25C37.4835 44.75 39.1275 48.25 41.5936 49.6667C42.0868 50 42.6622 50.25 43.3198 50.5C45.046 51 47.0188 50.75 48.745 50.6667C50.8822 50.5 52.3618 49.9167 54.0059 48.5C57.1295 45.6667 58.9379 42.4167 58.1159 38.0833Z" fill="white"/>
<path d="M88.941 35.4167C86.7216 29.0833 77.3507 26.3333 72.3364 30.5833C71.1034 31.5833 69.8704 32.9167 69.0484 34.3333C68.1442 35.9167 68.062 37.6667 68.062 39.5C68.062 41.3333 68.3086 43.0833 69.1306 44.75C69.8704 46.3333 71.1034 47.6667 72.172 49C72.5008 49.5 73.0762 49.75 73.5695 49.8333C73.7339 49.9167 73.8983 50 73.9805 50.0833C76.4465 51.3333 80.2277 50.6667 82.7759 50C85.6529 49.3333 87.9546 47.3333 88.6944 44.3333C89.4342 41.5833 89.9274 38.0833 88.941 35.4167Z" fill="white"/>
<path d="M56.8827 37.6667C54.9921 33.5833 51.2931 29.4167 45.539 31.0833C40.196 32.6667 38.141 37.1667 39.2918 41.6667C40.4426 46.1667 44.9636 49.75 50.4711 48.1667C53.0193 47.4167 54.7455 46 55.7319 44.25C56.5539 43.3333 56.9649 42.0833 57.1293 40.6667C57.2115 40.1667 57.2115 39.5833 57.1293 39C57.1293 38.5 57.0471 38.0833 56.8827 37.6667Z" fill="black"/>
<path d="M83.4335 31.5C80.0633 30 76.3642 30.1667 73.9804 32.25C72.8296 32.6667 72.0076 33.4167 71.5144 34.4167C71.2678 34.8333 71.1034 35.25 70.8568 35.6667C70.6102 36 70.4458 36.3333 70.2814 36.6667C69.7882 37.8333 69.5416 39.0833 69.706 40.3333C69.706 41.6667 69.9526 42.9167 70.6924 44.1667C72.4186 47 77.6795 49.8333 81.7073 48.4167C85.7351 47 87.5435 43.1667 87.8723 39.9167C88.2833 36.5 87.6257 33.4167 83.4335 31.5Z" fill="black"/>
<path d="M54.2525 36.6667C53.8415 35.8333 53.1839 34.9167 52.033 35.25C50.9644 35.5833 50.6356 36.5833 50.8 37.5C51.0466 38.5 51.8686 39.25 52.9373 38.9167C53.4305 38.75 53.7593 38.4167 53.9237 38.0833C54.0881 37.9167 54.1703 37.6667 54.1703 37.3333C54.1703 37.25 54.1703 37.0833 54.1703 37C54.2525 36.8333 54.2525 36.75 54.2525 36.6667Z" fill="white"/>
<path d="M75.049 36.5833C74.638 35.6667 73.8982 34.75 72.7474 35.0833C71.6788 35.4167 71.2678 36.5 71.4322 37.5C71.6788 38.5 72.583 39.3333 73.7338 38.9167C74.227 38.75 74.638 38.4167 74.8024 38C74.9668 37.75 75.049 37.5 75.049 37.1667C75.049 37.0833 75.049 36.9167 75.049 36.8333C75.1312 36.8333 75.1312 36.6667 75.049 36.5833Z" fill="white"/>
<path d="M104.395 53.1667C107.436 53.3333 110.56 53 113.601 52.6667C114.012 52.5833 114.259 52.3333 114.259 52C114.259 51.6667 113.93 51.25 113.601 51.3333C110.56 51.6667 107.518 52.0833 104.395 51.8333C103.984 51.8333 103.737 52.1667 103.737 52.5C103.737 52.8333 104.066 53.0833 104.395 53.1667Z" fill="black"/>
<path d="M102.997 56.3333C106.614 56.5 110.231 56.8333 113.766 57.25C114.177 57.3333 114.423 56.9167 114.423 56.5833C114.423 56.1667 114.094 55.9167 113.766 55.9167C110.149 55.5 106.614 55.1667 102.997 55C102.093 54.8333 102.093 56.25 102.997 56.3333Z" fill="black"/>
<path d="M21.7008 51.1667C18.5772 51.5 15.3714 51.5833 12.2477 51.5C11.3435 51.5 11.3435 52.9167 12.2477 52.9167C15.3714 53 18.5772 52.9167 21.7008 52.5833C22.1118 52.5833 22.3584 52.25 22.3584 51.9167C22.3584 51.5833 22.0296 51.1667 21.7008 51.1667Z" fill="black"/>
<path d="M21.9474 54.5C18.6594 54.9167 15.4536 55.4167 12.2478 56.1667C11.3436 56.3333 11.7546 57.75 12.6588 57.5C15.7002 56.75 18.8238 56.25 21.9474 55.8333C22.3585 55.75 22.6051 55.5 22.6051 55.1667C22.6873 54.8333 22.3585 54.4167 21.9474 54.5Z" fill="black"/>
</g>
<defs>
<clipPath id="clip0_18_174">
<rect width="127" height="81" fill="white"/>
</clipPath>
</defs>
</svg>
