<svg width="115" height="105" viewBox="0 0 115 105" fill="none" xmlns="http://www.w3.org/2000/svg">
<g clip-path="url(#clip0_18_315)">
<path d="M106.347 66.6379C106.347 77.1552 104.097 88.2759 96.1361 95.1724C87.9156 102.241 73.8111 105 61.264 105C47.7652 105 33.4875 101.638 25.1805 93.6207C18.1715 86.8965 16.0947 76.2931 16.0947 66.5517C16.0947 45.3448 36.343 28.1897 61.264 28.1897C86.185 28.1897 106.347 45.431 106.347 66.6379Z" fill="black"/>
<path d="M17.9983 56.8966C17.9983 56.8966 7.96071 5.25862 15.2293 0.431036C22.498 -4.39655 53.3896 30.8621 53.3896 30.8621L17.9983 56.8966Z" fill="black"/>
<path d="M104.876 57.5862C104.876 57.5862 119.586 8.27586 112.837 2.84483C106.087 -2.58621 68.6191 30.1724 68.6191 30.1724L104.876 57.5862Z" fill="black"/>
<path d="M53.0438 60.6034C52.6976 58.8793 52.0054 57.069 50.967 55.6034C49.8421 53.9655 48.198 53.7069 46.727 52.5862C43.8714 50.3448 38.3334 51.8103 35.4779 53.3621C31.0648 55.6897 30.1995 60.1724 30.8918 64.9138C31.3244 67.5 33.055 71.1207 35.651 72.5862C36.1702 72.931 39.3718 74.1379 43.1792 73.5345C45.429 73.1897 46.9866 72.7586 48.7172 71.2931C52.0054 68.5345 53.9091 65.0862 53.0438 60.6034Z" fill="white"/>
<path d="M51.4859 60.2586C49.7553 56.2931 46.3805 52.069 41.1021 53.7931C36.2564 55.3448 34.3527 59.8276 35.3911 64.3103C36.4294 68.7931 40.5829 72.3276 45.6018 70.6896C47.9381 69.9138 49.4957 68.5345 50.361 66.8103C51.0532 65.8621 51.4859 64.6552 51.5724 63.2759C51.6589 62.7586 51.6589 62.1552 51.5724 61.6379C51.6589 61.2069 51.6589 60.6896 51.4859 60.2586Z" fill="black"/>
<path d="M49.842 59.8276C49.0633 57.931 47.5057 56.0345 44.9963 56.8103C42.7465 57.5 41.8812 59.6552 42.3138 61.7241C42.833 63.7931 44.7367 65.431 47.073 64.7414C48.1114 64.3965 48.8902 63.7069 49.3229 62.931C49.669 62.5 49.842 61.9828 49.9286 61.2931C49.9286 61.0345 49.9286 60.7759 49.9286 60.5172C49.9286 60.2586 49.9286 60 49.842 59.8276Z" fill="white"/>
<path d="M40.237 63.1897C39.8909 62.3276 39.1121 61.3793 37.9872 61.8103C36.9488 62.1552 36.5161 63.1034 36.7757 64.0517C37.0353 65 37.9006 65.7759 39.0256 65.431C39.5447 65.2586 39.8909 65 40.0639 64.569C40.237 64.3965 40.3235 64.1379 40.3235 63.7931C40.3235 63.7069 40.3235 63.5345 40.3235 63.4483C40.237 63.4483 40.237 63.3621 40.237 63.1897Z" fill="white"/>
<path d="M104.357 76.2069C107.558 76.3793 110.847 76.0345 114.048 75.6896C114.481 75.6034 114.741 75.3448 114.741 75C114.741 74.6552 114.394 74.2241 114.048 74.3103C110.847 74.6552 107.645 75.0862 104.357 74.8276C103.924 74.8276 103.665 75.1724 103.665 75.5172C103.665 75.9483 104.011 76.2069 104.357 76.2069Z" fill="black"/>
<path d="M102.886 79.4828C106.693 79.6552 110.501 80 114.221 80.431C114.654 80.5172 114.914 80.0862 114.914 79.7414C114.914 79.3103 114.567 79.0517 114.221 79.0517C110.414 78.6207 106.693 78.2759 102.886 78.1035C101.934 78.0172 101.934 79.4828 102.886 79.4828Z" fill="black"/>
<path d="M17.3061 74.2241C14.0179 74.569 10.6432 74.6552 7.355 74.569C6.40315 74.569 6.40315 76.0345 7.355 76.0345C10.6432 76.1207 14.0179 76.0345 17.3061 75.6897C17.7387 75.6897 17.9983 75.3448 17.9983 75C17.9983 74.569 17.6522 74.1379 17.3061 74.2241Z" fill="black"/>
<path d="M17.5657 77.5862C14.1045 78.0172 10.7297 78.5345 7.35503 79.3104C6.40318 79.4828 6.83584 80.9483 7.78768 80.6897C10.9893 79.9138 14.2775 79.3966 17.5657 78.9655C17.9984 78.8793 18.258 78.6207 18.258 78.2759C18.3445 77.931 17.9984 77.5862 17.5657 77.5862Z" fill="black"/>
<path d="M24.9209 65C24.9209 65 30.805 63.8793 38.2467 67.2414C45.6884 70.6034 50.015 75.2586 50.015 75.2586C50.015 75.2586 44.9961 81.4655 35.2181 79.9138C25.4401 78.3621 24.9209 65 24.9209 65Z" fill="black"/>
<path d="M66.5426 60.6034C66.8888 58.8793 67.581 57.069 68.6194 55.6034C69.7443 53.9655 71.3884 53.7069 72.8594 52.5862C75.7149 50.3448 81.2529 51.8103 84.1085 53.3621C88.5216 55.6897 89.3869 60.1724 88.6946 64.9138C88.262 67.5 86.5313 71.1207 83.9354 72.5862C83.4162 72.931 80.2146 74.1379 76.4072 73.5345C74.1574 73.1897 72.5998 72.7586 70.8692 71.2931C67.6675 68.5345 65.6773 65.0862 66.5426 60.6034Z" fill="white"/>
<path d="M68.1867 60.2586C69.9174 56.2931 73.2921 52.069 78.5705 53.7931C83.4162 55.3448 85.3199 59.8276 84.2815 64.3103C83.2432 68.7931 79.0897 72.3276 74.0708 70.6896C71.7345 69.9138 70.1769 68.5345 69.3116 66.8103C68.6194 65.8621 68.1867 64.6552 68.1002 63.2759C68.0137 62.7586 68.0137 62.1552 68.1002 61.6379C67.9271 61.2069 68.0137 60.6896 68.1867 60.2586Z" fill="black"/>
<path d="M69.8309 59.8276C70.6096 57.931 72.1672 56.0345 74.6766 56.8103C76.9264 57.5 77.7917 59.6552 77.3591 61.7241C76.8399 63.7931 74.9362 65.431 72.5999 64.7414C71.5615 64.3965 70.7827 63.7069 70.3501 62.931C70.0039 62.5 69.8309 61.9828 69.7443 61.2931C69.7443 61.0345 69.7443 60.7759 69.7443 60.5172C69.6578 60.2586 69.7443 60 69.8309 59.8276Z" fill="white"/>
<path d="M79.4357 63.1897C79.7818 62.3276 80.5606 61.3793 81.6855 61.8103C82.7238 62.1552 83.1565 63.1034 82.8969 64.0517C82.6373 65 81.772 65.7759 80.6471 65.431C80.1279 65.2586 79.7818 65 79.6087 64.569C79.4357 64.3965 79.3491 64.1379 79.3491 63.7931C79.3491 63.7069 79.3491 63.5345 79.3491 63.4483C79.3491 63.4483 79.3491 63.3621 79.4357 63.1897Z" fill="white"/>
<path d="M94.7518 65C94.7518 65 88.8676 63.8793 81.426 67.2414C73.9843 70.6034 69.6577 75.2586 69.6577 75.2586C69.6577 75.2586 74.6765 81.4655 84.4546 79.9138C94.2326 78.3621 94.7518 65 94.7518 65Z" fill="black"/>
</g>
<defs>
<clipPath id="clip0_18_315">
<rect width="115" height="105" fill="white"/>
</clipPath>
</defs>
</svg>
